# xmcd
#
# Track frame offsets:
#	150
#	14037
#	30830
#	43805
#	61725
#	77397
#	94687
#	105525
#
# Disc length: 1645 seconds
# Revision: 0
# Processed by: cddbd v1.5.2PL0 Copyright (c) Steve Scherf et al.
# Submitted via: dBpowerAMP V12.0
#
DISCID=52066b08
DTITLE=Eddie b - I'll give you my heart
DYEAR=1994
DGENRE=Country
TTITLE0=lookin' back
TTITLE1=I'll give you my heart
TTITLE2=no no 
TTITLE3=black sheep (come on home)
TTITLE4=just say go
TTITLE5=the one about kids
TTITLE6=here we go again
TTITLE7=tryin' to get to heaven
EXTD=
EXTT0=
EXTT1=
EXTT2=
EXTT3=
EXTT4=
EXTT5=
EXTT6=
EXTT7=
PLAYORDER=
